<svg width="25" height="26" viewBox="0 0 25 26" fill="none" xmlns="http://www.w3.org/2000/svg">
<path d="M13.6593 20.1059V22.6143H11.1984V20.2776C9.7189 20.2435 8.26569 19.8794 6.94482 19.212L7.6831 16.3598C8.96233 17.0374 10.3837 17.4025 11.8311 17.4254C13.2721 17.4254 14.2198 16.8754 14.2198 15.9131C14.2198 14.9854 13.4116 14.4009 11.5834 13.7826C8.9119 12.8893 7.0837 11.6865 7.0837 9.31537C7.0837 7.1487 8.63025 5.46648 11.3017 4.95092V2.61426H13.7643V4.78092C15.0124 4.79627 16.2443 5.06524 17.3851 5.57148L16.6469 8.32037C15.5177 7.77535 14.2798 7.49329 13.026 7.49537C11.4089 7.49537 10.8818 8.18259 10.8818 8.86981C10.8818 9.66037 11.7606 10.1759 13.8699 10.9659C16.858 11.997 18.0529 13.337 18.0529 15.5365C18.1234 17.7348 16.5419 19.5881 13.6593 20.1059Z" fill="#222222"/>
</svg>
