<svg width="25" height="26" viewBox="0 0 25 26" fill="none" xmlns="http://www.w3.org/2000/svg">
<rect x="3" y="3.11426" width="19" height="19" rx="3.5" stroke="#C94A21"/>
<path fill-rule="evenodd" clip-rule="evenodd" d="M6.5 3.61426C4.84315 3.61426 3.5 4.9574 3.5 6.61426V18.6143C3.5 20.2711 4.84315 21.6143 6.5 21.6143H18.5C20.1569 21.6143 21.5 20.2711 21.5 18.6143V6.61426C21.5 4.9574 20.1569 3.61426 18.5 3.61426H6.5ZM18.4928 9.32136C18.8833 8.93084 18.8833 8.29768 18.4928 7.90715C18.1023 7.51663 17.4691 7.51663 17.0786 7.90715L10.7143 14.2715L8.20711 11.7643C7.81658 11.3738 7.18342 11.3738 6.79289 11.7643C6.40237 12.1548 6.40237 12.788 6.79289 13.1785L10.0072 16.3928C10.3977 16.7833 11.0309 16.7833 11.4214 16.3928L18.4928 9.32136Z" fill="#C94A21"/>
</svg>
