<svg width="24" height="24" viewBox="0 0 24 24" fill="none" xmlns="http://www.w3.org/2000/svg">
<path d="M19.734 0.749553C20.7361 -0.249852 22.2821 -0.249852 23.2842 0.749553C23.771 1.23498 24 1.86317 24 2.51993C24 3.17668 23.771 3.83343 23.2842 4.2903L15.5825 12L23.2842 19.6811C23.771 20.1666 24 20.7948 24 21.4515C24 22.1083 23.771 22.765 23.2842 23.2219C22.2821 24.2213 20.7361 24.2213 19.734 23.2219L12.0322 15.5407L4.30182 23.2504C3.29973 24.2499 1.75365 24.2499 0.751566 23.2504C-0.250522 22.251 -0.250522 20.7091 0.751566 19.7097L8.45333 12L0.751565 4.31886C-0.250523 3.31945 -0.250523 1.77751 0.751565 0.778103C1.75365 -0.221302 3.29973 -0.221302 4.30182 0.778103L12.0036 8.45925L19.734 0.749553Z" fill="#C4C4C4"/>
</svg>
