<svg width="24" height="24" viewBox="0 0 24 24" fill="none" xmlns="http://www.w3.org/2000/svg">
<path d="M21.9983 16.0437C21.992 16.0437 21.9888 16.0437 21.9848 16.05L20.2389 17.7856C20.2346 17.7891 20.2306 17.7931 20.227 17.7975C20.212 17.8165 20.1993 17.8165 20.1818 17.7975C20.1397 17.753 20.0961 17.711 20.0524 17.6673C19.9302 17.5451 19.808 17.4221 19.6842 17.3007C19.6737 17.2917 19.6661 17.2799 19.6625 17.2666C19.6588 17.2533 19.6592 17.2392 19.6636 17.2261C19.8128 16.6129 19.9609 15.9992 20.108 15.385C20.1131 15.3727 20.115 15.3593 20.1136 15.3461H20.1088C20.1088 15.3461 20.104 15.3461 20.1032 15.3461C19.7112 15.7389 19.3216 16.1357 18.9271 16.5325L18.4978 16.1167L20.2929 14.3351C20.3102 14.3442 20.3253 14.3569 20.3373 14.3724C20.5151 14.5501 20.6921 14.7287 20.8714 14.9049C20.8865 14.9168 20.8974 14.9333 20.9024 14.9518C20.9074 14.9704 20.9063 14.9901 20.8992 15.008C20.7326 15.5897 20.5691 16.1714 20.404 16.7539C20.4001 16.7655 20.4001 16.778 20.404 16.7896L21.5873 15.6207L21.9999 16.0349L21.9983 16.0437Z" fill="#020202"/>
<path d="M19.8138 18.0189H4.08008C4.09025 17.9978 4.10552 17.9795 4.12452 17.9657L6.10373 16.0095L7.69646 14.4351L9.61853 12.5392L11.5231 10.6512C11.6649 10.511 11.8073 10.3708 11.9501 10.2306C12.0041 10.1775 11.9922 10.1759 12.0453 10.2306C12.4628 10.6481 12.8799 11.066 13.2968 11.4845C15.2887 13.4743 17.2785 15.4659 19.2662 17.4594C19.4376 17.6301 19.6082 17.8023 19.7789 17.9737C19.794 17.9857 19.806 18.0012 19.8138 18.0189Z" fill="#72BF44"/>
<path d="M11.5881 7.30466C11.2786 7.60067 10.9675 7.89747 10.658 8.19983L10.4993 8.04111L10.2731 7.81414C10.2351 7.77685 10.2358 7.78399 10.2731 7.7451L11.2382 6.78724L12.0087 6.02222L12.0333 6C12.049 6.00775 12.0627 6.01918 12.073 6.03333L12.5888 6.56027C12.6333 6.6063 12.6301 6.59202 12.6007 6.65074L12.0222 7.79668L11.9897 7.86176C12.0113 7.86228 12.0326 7.85558 12.05 7.84271L13.2404 7.29593C13.2491 7.2926 13.2576 7.28862 13.2658 7.28403C13.2699 7.28072 13.2747 7.27837 13.2798 7.27713C13.2849 7.27589 13.2902 7.2758 13.2954 7.27686C13.3005 7.27792 13.3054 7.28011 13.3096 7.28327C13.3138 7.28643 13.3173 7.29048 13.3197 7.29514L13.3285 7.30307L13.8451 7.82049L13.8713 7.84906L12.0833 9.62353C11.9357 9.47671 11.7897 9.33069 11.6405 9.1807C11.6445 9.17039 11.6627 9.15928 11.677 9.1442L12.5031 8.32998C12.5158 8.31728 12.5436 8.30379 12.5333 8.28792C12.523 8.27204 12.496 8.28792 12.4801 8.29823L11.3366 8.81565C11.2747 8.84422 11.2905 8.84819 11.2413 8.79978L11.0469 8.60615C11.0136 8.57202 11.0136 8.57202 11.0334 8.52679L11.55 7.41576C11.5667 7.37926 11.5834 7.34355 11.6008 7.30783C11.6034 7.3062 11.6053 7.30369 11.6061 7.30078C11.607 7.29787 11.6068 7.29474 11.6056 7.29196C11.6103 7.29196 11.6135 7.28561 11.6056 7.28006L11.5992 7.2872C11.5962 7.28909 11.5936 7.29164 11.5917 7.29466C11.5898 7.29768 11.5885 7.3011 11.5881 7.30466ZM12.5547 8.27919H12.5619H12.5539H12.5547Z" fill="#020202"/>
<path d="M14.1816 11.771L16.0069 9.987C16.0193 10.0053 16.0328 10.0228 16.0474 10.0394C16.3807 10.3774 16.714 10.715 17.0473 11.052C17.1063 11.1108 17.1518 11.1817 17.1807 11.2598C17.2096 11.3379 17.2212 11.4213 17.2147 11.5043C17.2026 11.6863 17.1262 11.858 16.9991 11.9889C16.8721 12.1197 16.7027 12.2011 16.5211 12.2186C16.3938 12.2351 16.2645 12.215 16.1481 12.1606C16.0191 12.5558 15.8902 12.9505 15.7617 13.3447C15.7488 13.3405 15.7374 13.3324 15.7291 13.3217C15.5926 13.1812 15.4561 13.0399 15.3181 12.9003C15.3079 12.8909 15.3006 12.8788 15.2971 12.8655C15.2936 12.8521 15.294 12.838 15.2982 12.8249C15.4088 12.3217 15.5183 11.8191 15.6268 11.3171C15.6292 11.3039 15.6292 11.2905 15.6268 11.2774C15.6045 11.2837 15.5934 11.3028 15.5791 11.3171L14.6983 12.1979C14.6467 12.2487 14.6602 12.2463 14.6126 12.1979L14.2245 11.8107C14.2112 11.7964 14.1969 11.7831 14.1816 11.771ZM15.6633 11.2274C15.7823 11.3496 15.8966 11.4718 16.0164 11.5877C16.0537 11.6223 16.0988 11.6475 16.1479 11.661C16.197 11.6746 16.2486 11.6761 16.2984 11.6655C16.3482 11.655 16.3947 11.6326 16.434 11.6002C16.4733 11.5679 16.5043 11.5266 16.5243 11.4797C16.548 11.4382 16.5587 11.3904 16.5549 11.3427C16.551 11.295 16.5329 11.2496 16.5029 11.2123C16.4894 11.194 16.4745 11.1768 16.4584 11.1607L16.1259 10.8322C16.1156 10.8219 16.1085 10.8076 16.0886 10.8052C15.949 10.9441 15.8085 11.0814 15.6633 11.229V11.2274Z" fill="#020202"/>
<path d="M7.15859 11.1996C7.17393 10.8555 7.32147 10.5305 7.57046 10.2925C7.72931 10.1393 7.92915 10.0354 8.14582 9.99334C8.47526 9.91373 8.8226 9.96105 9.11876 10.1259C9.37274 10.274 9.56994 10.5028 9.67903 10.7758C9.76968 10.9763 9.80503 11.1975 9.7814 11.4162C9.76062 11.6124 9.68743 11.7993 9.56951 11.9575C9.35441 12.2602 9.03101 12.4685 8.66641 12.5392C8.45415 12.585 8.23301 12.5662 8.03154 12.4852C7.8479 12.4128 7.68151 12.3026 7.54316 12.1618C7.40481 12.021 7.29759 11.8527 7.22843 11.6678C7.17555 11.5176 7.15185 11.3587 7.15859 11.1996ZM8.6553 11.967C8.67673 11.967 8.69736 11.967 8.71799 11.963C8.73144 11.9616 8.74472 11.959 8.75767 11.9551C8.85343 11.929 8.94186 11.8811 9.01605 11.8151C9.09025 11.7492 9.14821 11.667 9.18542 11.575C9.21237 11.5093 9.21819 11.4369 9.20208 11.3678C9.18129 11.2728 9.14162 11.183 9.08542 11.1036C8.98922 10.9617 8.87565 10.8324 8.74736 10.7187C8.68084 10.6583 8.60465 10.6094 8.52198 10.5742C8.42059 10.5289 8.30714 10.518 8.19899 10.5433C8.11322 10.5645 8.0332 10.6044 7.96461 10.6601C7.89603 10.7158 7.84057 10.7859 7.80219 10.8655C7.75671 10.9519 7.7395 11.0505 7.75299 11.1472C7.76615 11.2514 7.80456 11.3509 7.86489 11.4369C7.99859 11.6328 8.1792 11.7921 8.39024 11.9003C8.47143 11.9442 8.56225 11.9671 8.65451 11.967H8.6553Z" fill="#020202"/>
<path d="M6.31799 13.2431C6.31799 13.2637 6.33942 13.2732 6.35212 13.2867L7.21634 14.1756C7.23157 14.1876 7.24471 14.2021 7.25522 14.2184L6.78859 14.685C6.77272 14.6787 6.76082 14.6604 6.74653 14.6462L5.04825 12.9352C5.04111 12.9288 5.03476 12.9209 5.02762 12.9153C5.02048 12.9098 5.00857 12.8884 5.02762 12.8741L5.04825 12.8542C5.33553 12.5712 5.62307 12.2879 5.91088 12.0043C6.03608 11.8776 6.19845 11.7942 6.37434 11.7662C6.46578 11.7478 6.56005 11.7486 6.65119 11.7685C6.74233 11.7883 6.82835 11.8269 6.90382 11.8817C6.9793 11.9365 7.04258 12.0064 7.08968 12.0869C7.13678 12.1674 7.16666 12.2569 7.17745 12.3495C7.19398 12.4956 7.18403 12.6434 7.14809 12.786L7.14253 12.809C7.53933 12.9201 7.9258 13.0574 8.31387 13.1875C8.31387 13.2074 8.30117 13.2129 8.29244 13.2209C8.15594 13.3542 8.01865 13.4859 7.88374 13.6177C7.87518 13.6275 7.86381 13.6344 7.85118 13.6375C7.83854 13.6406 7.82526 13.6398 7.81311 13.6351C7.33696 13.506 6.85763 13.378 6.37513 13.251C6.35688 13.2463 6.33783 13.2312 6.3172 13.2447C6.3172 13.2447 6.3172 13.2383 6.3172 13.2367H6.31085L6.31799 13.2431ZM6.7005 12.7003C6.6935 12.6289 6.66537 12.5613 6.61971 12.506C6.57404 12.4507 6.51293 12.4103 6.44417 12.39C6.43114 12.3871 6.41783 12.3858 6.40449 12.386C6.32368 12.3857 6.24532 12.4138 6.18308 12.4654C6.08071 12.5447 5.9831 12.636 5.88866 12.7273C5.88152 12.7344 5.87596 12.7415 5.86882 12.7479C5.86168 12.7542 5.85533 12.7757 5.86882 12.79C6.00453 12.9249 6.13864 13.059 6.27276 13.1947C6.2926 13.2145 6.30292 13.2066 6.31879 13.1947L6.58702 12.9376C6.6162 12.9102 6.64108 12.8787 6.66082 12.8439C6.68649 12.8004 6.70018 12.7508 6.7005 12.7003Z" fill="#020202"/>
<path d="M14.7656 10.0616L14.4069 10.4219C14.395 10.4338 14.3855 10.4361 14.3744 10.4219L14.3466 10.3933L13.8149 9.85048C13.8014 9.83778 13.7911 9.82111 13.7776 9.81556L13.3895 10.2028L14.1617 10.9885L13.78 11.3567C13.766 11.3368 13.7509 11.3177 13.7347 11.2996L12.5777 10.1298L12.5547 10.1044C12.5412 10.0925 12.5435 10.0822 12.5547 10.0711L12.5753 10.0513L14.3069 8.33234L14.3315 8.30933C14.3474 8.30933 14.3545 8.32202 14.3632 8.33075C14.76 8.73072 15.1568 9.13122 15.5536 9.53225C15.5901 9.56955 15.5854 9.56558 15.5536 9.59812L15.2584 9.89254C15.2227 9.92904 15.2283 9.93222 15.1894 9.89254C14.9592 9.65922 14.7296 9.42564 14.5005 9.1918C14.445 9.13625 14.4458 9.13625 14.391 9.1918L14.1529 9.42988L14.7656 10.0616Z" fill="#020202"/>
<path d="M4.63068 14.5843C4.65211 14.5636 4.67195 14.5462 4.691 14.5271L5.23936 14.0018C5.27746 13.966 5.27031 13.9621 5.30999 14.0018L5.60045 14.293C5.64092 14.3335 5.6433 14.3247 5.60045 14.366L5.04494 14.9136C5.03541 14.9231 5.02668 14.9326 5.01637 14.9414C5.00605 14.9501 5.00288 14.9683 5.01637 14.9826C5.07906 15.0437 5.14096 15.1064 5.20286 15.1683L5.383 15.3517L6.16707 14.5811L6.51387 14.9311L5.26793 16.1492L3.48315 14.3636L4.73147 13.1558L5.07906 13.5034C5.07033 13.5129 5.05684 13.5272 5.04176 13.5415L4.35928 14.2002C4.34975 14.2097 4.34102 14.2192 4.33071 14.2279C4.32039 14.2367 4.31166 14.2525 4.33071 14.27L4.63068 14.5843Z" fill="#020202"/>
<path d="M8.46606 9.51401C8.46606 9.49337 8.48114 9.48702 8.49067 9.4775C8.6343 9.33307 8.77874 9.19022 8.92158 9.04499C8.93009 9.0339 8.94228 9.02621 8.95596 9.0233C8.96963 9.02039 8.98389 9.02246 8.99618 9.02912C9.27314 9.13308 9.55169 9.23625 9.82945 9.33942L9.88262 9.35767C9.88685 9.34201 9.88516 9.32533 9.87786 9.31085C9.79374 9.01881 9.71041 8.72677 9.6247 8.4379C9.61904 8.42263 9.6182 8.40598 9.62232 8.39023C9.62644 8.37447 9.6353 8.36036 9.64772 8.34981C9.79929 8.20458 9.94849 8.05777 10.0985 7.91175C10.112 7.89826 10.1263 7.88556 10.1389 7.87366C10.158 7.87921 10.1556 7.89508 10.158 7.90699C10.2897 8.45351 10.422 9.00055 10.5548 9.54813C10.5624 9.57835 10.5784 9.60584 10.6008 9.62749L11.2151 10.2624L11.2349 10.283C11.2635 10.3139 11.2643 10.3147 11.2349 10.3449L10.8492 10.7187C10.8071 10.7599 10.8175 10.7647 10.7699 10.7187C10.5445 10.4973 10.3183 10.2759 10.0937 10.0536C10.0694 10.0298 10.0397 10.0121 10.0072 10.0021L8.51923 9.52591L8.46606 9.51401Z" fill="#020202"/>
<path d="M18.37 12.3773C18.3513 12.3894 18.3335 12.4029 18.3168 12.4178C17.8936 12.8384 17.4719 13.2598 17.0519 13.6819C17.0074 13.7256 17.0074 13.7256 17.0519 13.7716L17.7161 14.4478C17.7296 14.4612 17.7423 14.4755 17.7518 14.4858L17.3304 14.908L16.1035 13.6756C16.1148 13.6608 16.1278 13.6475 16.1424 13.6359L17.8716 11.9392C17.9137 11.898 17.9042 11.8932 17.951 11.9392L18.37 12.3773Z" fill="#020202"/>
<path d="M2 15.8064L2.45314 15.3667C2.47237 15.379 2.48952 15.3943 2.50393 15.412L3.77367 16.7087L3.79351 16.7285C3.82367 16.7587 3.82367 16.7587 3.85462 16.7285L4.54345 16.0516C4.55615 16.0381 4.56647 16.0214 4.58234 16.0016L4.99104 16.4238L3.77208 17.6181L2 15.8064Z" fill="#020202"/>
<path d="M17.6606 15.2469L19.4478 13.474L19.9144 13.9295C19.8998 13.9389 19.8857 13.9493 19.8724 13.9605L18.1495 15.6691C18.1058 15.7119 18.1162 15.7135 18.0701 15.6691L17.6916 15.2881C17.6784 15.2768 17.6678 15.2627 17.6606 15.2469Z" fill="#020202"/>
<path d="M11.5881 7.30466C11.5893 7.30012 11.5919 7.29603 11.5954 7.29293C11.5989 7.28982 11.6033 7.28783 11.608 7.2872L11.6127 7.29196C11.614 7.29474 11.6142 7.29787 11.6133 7.30078C11.6124 7.3037 11.6105 7.3062 11.608 7.30784L11.5881 7.30466Z" fill="#72BF44"/>
<path d="M11.6082 7.2872L11.6145 7.28006C11.6209 7.28561 11.6145 7.28879 11.6145 7.29196L11.6082 7.2872Z" fill="#72BF44"/>
<path d="M6.318 13.2431L6.31006 13.2383H6.31641C6.31641 13.2383 6.31641 13.2431 6.31641 13.2463L6.318 13.2431Z" fill="white"/>
</svg>
