<svg width="25" height="25" viewBox="0 0 25 25" fill="none" xmlns="http://www.w3.org/2000/svg">
<path d="M7.08913 4.79444C7.08913 5.24824 6.95457 5.69185 6.70245 6.06917C6.45033 6.44649 6.09199 6.74057 5.67274 6.91424C5.25348 7.0879 4.79214 7.13333 4.34707 7.0448C3.90199 6.95627 3.49316 6.73775 3.17227 6.41686C2.85139 6.09598 2.63286 5.68715 2.54433 5.24207C2.4558 4.79699 2.50124 4.33565 2.6749 3.9164C2.84856 3.49714 3.14265 3.1388 3.51996 2.88668C3.89728 2.63457 4.34089 2.5 4.79469 2.5C5.40321 2.5 5.98682 2.74174 6.41711 3.17203C6.8474 3.60232 7.08913 4.18592 7.08913 4.79444Z" fill="#2980B9"/>
<path d="M7.08913 12.5039C7.09242 12.9577 6.96107 13.4022 6.71169 13.7814C6.46232 14.1605 6.10612 14.4572 5.68814 14.6339C5.27016 14.8106 4.80917 14.8593 4.36347 14.774C3.91776 14.6887 3.50736 14.4732 3.18416 14.1547C2.86096 13.8361 2.63947 13.4289 2.54771 12.9845C2.45594 12.54 2.49802 12.0784 2.66863 11.6579C2.83923 11.2374 3.13069 10.8769 3.50616 10.6221C3.88163 10.3672 4.32424 10.2294 4.77802 10.2261H4.79469C5.40034 10.2261 5.98143 10.4655 6.41124 10.8922C6.84106 11.3189 7.08473 11.8983 7.08913 12.5039Z" fill="#2980B9"/>
<path d="M22.4908 4.79444C22.4908 5.24119 22.3142 5.66983 21.9995 5.98692C21.6848 6.30402 21.2575 6.48385 20.8108 6.48722H11.7891C11.3402 6.48722 10.9096 6.30888 10.5922 5.99142C10.2747 5.67396 10.0964 5.2434 10.0964 4.79444C10.0964 4.34549 10.2747 3.91493 10.5922 3.59747C10.9096 3.28001 11.3402 3.10167 11.7891 3.10167H20.8102C21.2586 3.10255 21.6883 3.28129 22.0051 3.59865C22.3218 3.91601 22.4997 4.34607 22.4997 4.79444H22.4908Z" fill="#2980B9"/>
<path d="M22.4908 12.5C22.4908 12.9467 22.3142 13.3754 21.9995 13.6925C21.6848 14.0096 21.2575 14.1894 20.8108 14.1928H11.7891C11.3402 14.1928 10.9096 14.0144 10.5922 13.697C10.2747 13.3795 10.0964 12.949 10.0964 12.5C10.0964 12.051 10.2747 11.6205 10.5922 11.303C10.9096 10.9856 11.3402 10.8072 11.7891 10.8072H20.8102C21.2573 10.8097 21.6851 10.9893 21.9999 11.3066C22.3148 11.6238 22.4917 12.053 22.4908 12.5Z" fill="#2980B9"/>
<path d="M7.08913 20.2056C7.08913 20.6594 6.95457 21.103 6.70245 21.4803C6.45033 21.8576 6.09199 22.1517 5.67274 22.3253C5.25348 22.499 4.79214 22.5444 4.34707 22.4559C3.90199 22.3674 3.49316 22.1489 3.17227 21.828C2.85139 21.5071 2.63286 21.0983 2.54433 20.6532C2.4558 20.2081 2.50124 19.7468 2.6749 19.3275C2.84856 18.9083 3.14265 18.5499 3.51996 18.2978C3.89728 18.0457 4.34089 17.9111 4.79469 17.9111C5.40299 17.9118 5.98616 18.1538 6.4163 18.584C6.84643 19.0141 7.0884 19.5973 7.08913 20.2056Z" fill="#2980B9"/>
<path d="M22.4908 20.2056C22.4902 20.652 22.3133 21.0802 21.9985 21.3968C21.6838 21.7134 21.2567 21.8929 20.8102 21.8961H11.7891C11.3402 21.8961 10.9096 21.7178 10.5922 21.4003C10.2747 21.0829 10.0964 20.6523 10.0964 20.2033C10.0964 19.7544 10.2747 19.3238 10.5922 19.0064C10.9096 18.6889 11.3402 18.5106 11.7891 18.5106H20.8102C21.2586 18.5114 21.6883 18.6902 22.0051 19.0075C22.3218 19.3249 22.4997 19.755 22.4997 20.2033L22.4908 20.2056Z" fill="#2980B9"/>
</svg>
