<svg width="25" height="26" viewBox="0 0 25 26" fill="none" xmlns="http://www.w3.org/2000/svg">
<path d="M12.501 22.6143C11.1512 22.6143 9.84056 22.3506 8.60802 21.8291C7.4165 21.3252 6.34803 20.6025 5.42997 19.6846C4.51192 18.7666 3.78919 17.6982 3.28523 16.5068C2.7637 15.2744 2.5 13.9639 2.5 12.6143C2.5 12.2256 2.81448 11.9111 3.20319 11.9111C3.5919 11.9111 3.90639 12.2256 3.90639 12.6143C3.90639 13.7744 4.13297 14.8994 4.58223 15.96C5.01587 16.9834 5.63507 17.9033 6.42421 18.6924C7.21335 19.4814 8.13336 20.1025 9.1569 20.5342C10.2156 20.9814 11.3407 21.208 12.501 21.208C13.6612 21.208 14.7864 20.9814 15.847 20.5322C16.8705 20.0986 17.7906 19.4795 18.5797 18.6904C19.3688 17.9014 19.99 16.9814 20.4217 15.958C20.869 14.8994 21.0956 13.7744 21.0956 12.6143C21.0956 11.4541 20.869 10.3291 20.4197 9.26855C19.9876 8.24758 19.3621 7.31975 18.5777 6.53613C17.7949 5.75081 16.8668 5.12526 15.8451 4.69434C14.7864 4.24707 13.6612 4.02051 12.501 4.02051C12.1123 4.02051 11.7978 3.70605 11.7978 3.31738C11.7978 2.92871 12.1123 2.61426 12.501 2.61426C13.8507 2.61426 15.1614 2.87793 16.3939 3.39941C17.5855 3.90332 18.6539 4.62598 19.572 5.54395C20.49 6.46191 21.2108 7.53223 21.7148 8.72168C22.2363 9.9541 22.5 11.2646 22.5 12.6143C22.5 13.9639 22.2363 15.2744 21.7148 16.5068C21.2128 17.6982 20.49 18.7666 19.572 19.6846C18.6539 20.6025 17.5835 21.3232 16.3939 21.8271C15.1614 22.3506 13.8507 22.6143 12.501 22.6143Z" fill="#222222"/>
</svg>
