<svg width="25" height="26" viewBox="0 0 25 26" fill="none" xmlns="http://www.w3.org/2000/svg">
<path d="M12.5002 2.61429C9.73117 2.61429 7.48639 4.73045 7.48639 7.34084C7.48639 9.95122 7.48639 10.8174 7.48639 10.8174H9.97258C9.97258 10.8174 9.97258 8.65681 9.97258 7.34084C9.97258 6.02486 11.1042 4.95803 12.5002 4.95803C13.8962 4.95803 15.0278 6.02486 15.0278 7.34084C15.0278 8.65681 15.0278 10.8174 15.0278 10.8174H17.514C17.514 10.8174 17.514 9.95122 17.514 7.34084C17.514 4.73045 15.2692 2.61429 12.5002 2.61429Z" fill="#222222"/>
<path d="M5 11.9893V22.6143H20V11.9893H5ZM13.1215 17.4371V19.3525H11.8785V17.4371C11.5073 17.2342 11.2569 16.8557 11.2569 16.4229C11.2569 15.7767 11.8146 15.251 12.5 15.251C13.1854 15.251 13.7431 15.7767 13.7431 16.4229C13.7431 16.8557 13.4927 17.2342 13.1215 17.4371Z" fill="#222222"/>
</svg>
