<svg width="24" height="24" viewBox="0 0 24 24" fill="none" xmlns="http://www.w3.org/2000/svg">
<path d="M24 0H0V24H24V0Z" fill="#32569C"/>
<path d="M17.4401 18.5984C17.4401 18.5984 11.3273 20.1184 8.26649 20.8616C8.00774 20.9304 7.7378 20.9466 7.47268 20.9091C7.20755 20.8717 6.95265 20.7814 6.72308 20.6436C6.49351 20.5058 6.29395 20.3233 6.13623 20.1069C5.97851 19.8906 5.86583 19.6447 5.80489 19.384C5.41823 17.8672 5.03369 16.3501 4.65129 14.8328C4.19529 13.0392 3.73449 11.2472 3.28409 9.45199C3.15369 8.93199 2.98409 8.41199 2.95609 7.87999C2.90329 6.91599 3.50569 6.15999 4.44729 5.91999C5.91769 5.54399 7.39369 5.18799 8.86809 4.82479C10.9681 4.30959 13.0697 3.79919 15.1673 3.27999C15.6385 3.16239 16.0969 3.00959 16.5929 3.11999C17.4633 3.30799 17.9873 3.84799 18.2057 4.69519C18.4241 5.54239 18.6257 6.38799 18.8409 7.23279C19.4617 9.67546 20.0844 12.1171 20.7089 14.5576C20.8049 14.9352 20.9097 15.3096 20.9937 15.6896C21.2401 16.7968 20.6217 17.8032 19.5241 18.0896C19.2665 18.1576 18.7481 18.2696 18.7481 18.2696L17.4401 18.5984Z" fill="white"/>
<path d="M7.76809 11.296C7.98809 11.0664 8.20089 10.828 8.43129 10.6096C9.50489 9.58959 10.5913 8.57999 11.6561 7.55279C11.8641 7.35359 12.0017 7.33759 12.2209 7.52879C13.5097 8.65359 14.8089 9.76879 16.1025 10.8888C16.1697 10.9472 16.2249 11.0192 16.3361 11.1392C16.1761 11.1544 16.0865 11.1712 15.9985 11.1696C15.6241 11.1648 15.4745 11.3008 15.4737 11.6752C15.4737 12.7776 15.4737 13.8792 15.4737 14.9816C15.4737 15.4256 15.4657 15.4272 15.0321 15.4176C14.5985 15.408 14.1761 15.4008 13.7521 15.4176C13.4713 15.4288 13.3193 15.3448 13.2513 15.0528C13.1713 14.7024 13.0329 14.3656 12.9265 14.0216C12.8905 13.9072 12.8753 13.7864 12.8321 13.5824L14.2385 13.8504L11.3089 10.4424L11.2249 10.4928V14.7088L11.2993 14.7568L12.0297 13.7728C12.1185 13.9616 12.1897 14.0928 12.2457 14.2392C12.4417 14.764 12.6393 15.2872 12.8185 15.8176C12.8945 16.0408 13.0209 16.132 13.2561 16.1296C14.1017 16.1224 14.9473 16.1296 15.7929 16.1296C16.1033 16.1296 16.2297 15.9888 16.2305 15.664C16.2305 14.544 16.2305 13.424 16.2305 12.304C16.2305 11.9256 16.2425 11.9144 16.6097 11.9128C16.8497 11.9128 17.0849 11.9024 17.3217 11.9128C17.5457 11.924 17.7177 11.8232 17.7521 11.6256C17.7562 11.5504 17.744 11.4753 17.7164 11.4053C17.6888 11.3353 17.6464 11.2721 17.5921 11.22C16.6601 10.3968 15.7137 9.58959 14.7721 8.77679C13.9465 8.06399 13.1249 7.34799 12.2977 6.63759C11.9777 6.36399 11.8425 6.36639 11.5401 6.65519C10.6001 7.55359 9.66729 8.45999 8.72649 9.35759C8.07529 9.97919 7.41449 10.592 6.75769 11.2088C6.67769 11.2888 6.56809 11.3544 6.51769 11.4488C6.44569 11.5904 6.34169 11.7848 6.38969 11.8976C6.43769 12.0104 6.64969 12.1112 6.79769 12.1256C7.14649 12.1576 7.50009 12.1368 7.85129 12.136C8.23369 12.136 8.23529 12.136 8.27129 12.5312C8.38569 13.7592 8.49769 14.9872 8.61929 16.2112C8.70569 17.0832 9.28569 17.6792 10.1585 17.7144C11.3921 17.7632 12.6273 17.7576 13.8617 17.7784C14.7073 17.792 15.5521 17.8024 16.3969 17.8312C16.9489 17.8504 17.3777 18.0776 17.6769 18.488C17.601 18.534 17.5206 18.572 17.4369 18.6016C14.3801 19.3592 11.3241 20.1216 8.26329 20.8648C8.00453 20.9331 7.7347 20.9488 7.46977 20.9109C7.20485 20.873 6.95022 20.7823 6.72098 20.6442C6.49173 20.5061 6.29253 20.3235 6.13517 20.107C5.97782 19.8905 5.86551 19.6447 5.80489 19.384C5.41823 17.8672 5.03369 16.3501 4.65129 14.8328C4.19529 13.0392 3.73449 11.2472 3.28409 9.45199C3.15369 8.93199 2.98409 8.41199 2.95609 7.87999C2.90329 6.91599 3.50569 6.15999 4.44729 5.91999C5.91769 5.54399 7.39369 5.18799 8.86809 4.82479C10.9681 4.30959 13.0697 3.79919 15.1673 3.27999C15.6385 3.16239 16.0969 3.00959 16.5929 3.11999C17.4633 3.30799 17.9873 3.84799 18.2057 4.69519C18.4241 5.54239 18.6257 6.38799 18.8409 7.23279C19.4617 9.67546 20.0844 12.1171 20.7089 14.5576C20.8049 14.9352 20.9097 15.3096 20.9937 15.6896C21.2401 16.7968 20.6217 17.8032 19.5241 18.0896C19.2693 18.1652 19.0101 18.2253 18.7481 18.2696C18.6882 18.2763 18.6276 18.2699 18.5706 18.2507C18.5135 18.2314 18.4613 18.2 18.4177 18.1584C17.8305 17.4056 17.0577 17.076 16.1153 17.0696C14.2252 17.0573 12.335 17.0389 10.4449 17.0144C9.76329 17.0064 9.45929 16.7408 9.36169 16.0616C9.29929 15.6304 9.26649 15.1944 9.22649 14.76C9.14169 13.8528 9.06649 12.9456 8.97769 12.04C8.92489 11.4712 8.80809 11.3736 8.24329 11.4C8.09609 11.4072 7.94889 11.4 7.80169 11.4L7.76809 11.296Z" fill="#FF8303"/>
</svg>
