<svg width="25" height="26" viewBox="0 0 25 26" fill="none" xmlns="http://www.w3.org/2000/svg">
<path d="M2.67617 6.1035C2.56652 6.32915 2.5 6.57858 2.5 6.845V18.3835C2.5 18.6497 2.56645 18.8992 2.67602 19.1248L9.28863 12.6142L2.67617 6.1035Z" fill="#222222"/>
<path d="M14.8828 13.4301L12.8752 15.3299C12.7607 15.4426 12.6108 15.4989 12.4609 15.4989C12.311 15.4989 12.1611 15.4426 12.0467 15.3299L10.1171 13.4301L3.50439 19.9406C3.73361 20.0487 3.98709 20.1143 4.25775 20.1143H20.7421C21.0127 20.1143 21.266 20.0488 21.4952 19.9408L14.8828 13.4301Z" fill="#222222"/>
<path d="M22.3241 6.10386L15.7115 12.6144L22.3239 19.1251C22.4335 18.8994 22.5 18.65 22.5 18.3836V6.84509C22.5 6.57882 22.4337 6.32944 22.3241 6.10386Z" fill="#222222"/>
<path d="M20.7422 5.11426H4.25785C3.98726 5.11426 3.73394 5.17976 3.50476 5.28772L12.461 14.1061L14.4684 12.2066L21.4956 5.28787C21.2664 5.17983 21.0129 5.11426 20.7422 5.11426Z" fill="#222222"/>
</svg>
