<svg width="24" height="24" viewBox="0 0 24 24" fill="none" xmlns="http://www.w3.org/2000/svg">
<path d="M2 5.61111C2 4.65338 2.38046 3.73488 3.05767 3.05767C3.73488 2.38046 4.65338 2 5.61111 2H18.3889C19.3466 2 20.2651 2.38046 20.9423 3.05767C21.6195 3.73488 22 4.65338 22 5.61111V18.3889C22 19.3466 21.6195 20.2651 20.9423 20.9423C20.2651 21.6195 19.3466 22 18.3889 22H5.61111C4.65338 22 3.73488 21.6195 3.05767 20.9423C2.38046 20.2651 2 19.3466 2 18.3889V5.61111ZM12.8333 7.27778C12.8333 7.05676 12.7455 6.8448 12.5893 6.68852C12.433 6.53224 12.221 6.44444 12 6.44444C11.779 6.44444 11.567 6.53224 11.4107 6.68852C11.2545 6.8448 11.1667 7.05676 11.1667 7.27778V11.1667H7.27778C7.05676 11.1667 6.8448 11.2545 6.68852 11.4107C6.53224 11.567 6.44444 11.779 6.44444 12C6.44444 12.221 6.53224 12.433 6.68852 12.5893C6.8448 12.7455 7.05676 12.8333 7.27778 12.8333H11.1667V16.7222C11.1667 16.9432 11.2545 17.1552 11.4107 17.3115C11.567 17.4678 11.779 17.5556 12 17.5556C12.221 17.5556 12.433 17.4678 12.5893 17.3115C12.7455 17.1552 12.8333 16.9432 12.8333 16.7222V12.8333H16.7222C16.9432 12.8333 17.1552 12.7455 17.3115 12.5893C17.4678 12.433 17.5556 12.221 17.5556 12C17.5556 11.779 17.4678 11.567 17.3115 11.4107C17.1552 11.2545 16.9432 11.1667 16.7222 11.1667H12.8333V7.27778Z" fill="#222222"/>
</svg>
