<svg width="25" height="26" viewBox="0 0 25 26" fill="none" xmlns="http://www.w3.org/2000/svg">
<path d="M7.57397 1.78851L13.5278 4.64607V11.6412L12.7827 11.4198V5.41754L9.00796 3.88844V12.8071L11.2222 12.2466L12.6597 12.8174L7.57397 14.5645V1.78851Z" fill="#C94A21"/>
<path d="M17.426 1.78094L12.5511 3.95698L13.7531 4.52434L15.9815 3.75979V12.6231L12.2629 11.4537V5.45495L11.5002 5.16089V12.1457L17.426 14.4531V1.78094Z" fill="#222222"/>
<path d="M14.4982 21.9811C14.2627 21.7355 14.1467 21.393 14.1467 20.9467V17.8885C14.1467 17.4423 14.2627 17.0998 14.4982 16.8541C14.7337 16.6085 15.0746 16.4874 15.521 16.4874C15.9673 16.4874 16.3083 16.6085 16.5437 16.8541C16.7792 17.0998 16.8952 17.4423 16.8952 17.8885V18.4905H16.013V17.8332C16.013 17.4803 15.8584 17.3039 15.5456 17.3039C15.2328 17.3039 15.0781 17.4803 15.0781 17.8332V21.0159C15.0781 21.3619 15.2328 21.5383 15.5456 21.5383C15.8584 21.5383 16.013 21.3653 16.013 21.0159V20.1441H16.8952V20.9502C16.8952 21.3965 16.7792 21.739 16.5437 21.9846C16.3083 22.2302 15.9673 22.3513 15.521 22.3513C15.0746 22.3513 14.7337 22.2268 14.4982 21.9811Z" fill="#C94A21"/>
<path d="M17.9496 17.7778H18.9478L19.7105 22.2683H18.9759L18.8424 21.3757V21.3895H18.0059L17.8723 22.2683H17.187L17.9496 17.7778ZM18.7545 20.7807L18.4276 18.5597H18.4136L18.0937 20.7807H18.7545Z" fill="#C94A21"/>
<path d="M20.8246 22.1714C20.5645 22.1195 20.3677 22.0019 20.2341 21.8186C20.0971 21.6352 20.0303 21.4 20.0303 21.1128V20.8188H20.7262V21.1578C20.7262 21.4173 20.8527 21.5487 21.1093 21.5487C21.3624 21.5487 21.4889 21.4138 21.4889 21.144C21.4889 20.9779 21.4432 20.8257 21.3553 20.6908C21.2675 20.5558 21.1023 20.4002 20.8598 20.2203C20.561 19.9919 20.3501 19.7809 20.2306 19.5837C20.1111 19.3865 20.0514 19.1651 20.0514 18.916C20.0514 18.6393 20.1182 18.4109 20.2482 18.231C20.3782 18.0512 20.5716 17.9335 20.8281 17.8782V17.4873H21.4291V17.8782C21.6892 17.9301 21.8825 18.0477 22.0161 18.2276C22.1496 18.4109 22.2164 18.6427 22.2164 18.9299V19.0579H21.5205V18.8849C21.5205 18.6185 21.3975 18.4871 21.1515 18.4871C20.9055 18.4871 20.7824 18.6151 20.7824 18.8711C20.7824 19.0233 20.8281 19.1686 20.916 19.2966C21.0039 19.4246 21.1691 19.5837 21.4116 19.7671C21.7103 19.9989 21.9212 20.2134 22.0407 20.4105C22.1602 20.6077 22.2199 20.8361 22.2199 21.0921C22.2199 21.3827 22.1532 21.6214 22.0161 21.8082C21.879 21.995 21.6822 22.1126 21.4256 22.1645V22.6143H20.8246V22.1714Z" fill="#C94A21"/>
<path d="M22.7401 17.7778H23.4747V19.6044H24.2655V17.7778H25.0001V22.2683H24.2655V20.2479H23.4747V22.2683H22.7401V17.7778Z" fill="#C94A21"/>
<path d="M0.977079 17.3869H0V16.5739H2.88555V17.3869H1.90847V22.2683H0.977079V17.3869Z" fill="#222222"/>
<path d="M3.26161 17.7778H4.35116C4.73075 17.7778 5.00841 17.8608 5.18062 18.0303C5.35284 18.1999 5.44071 18.4593 5.44071 18.8087V19.0855C5.44071 19.5525 5.27904 19.8466 4.9592 19.9711V19.985C5.13845 20.0369 5.26498 20.1406 5.33879 20.2998C5.41259 20.4589 5.44774 20.6699 5.44774 20.9363V21.7251C5.44774 21.8531 5.45126 21.9569 5.4618 22.0365C5.47234 22.116 5.49343 22.1921 5.52858 22.2717H4.77995C4.75184 22.1991 4.73426 22.1299 4.72723 22.0676C4.71669 22.0019 4.71317 21.8877 4.71317 21.7216V20.9017C4.71317 20.6976 4.67803 20.5523 4.60773 20.4728C4.53744 20.3932 4.41794 20.3517 4.24924 20.3517H3.99618V22.2752H3.26161V17.7778ZM4.2633 19.7013C4.41091 19.7013 4.51987 19.6667 4.59367 19.5906C4.66748 19.5179 4.70263 19.3968 4.70263 19.2239V18.8779C4.70263 18.7153 4.671 18.5977 4.61125 18.525C4.5515 18.4524 4.4566 18.4143 4.32656 18.4143H3.99267V19.7013H4.2633Z" fill="#222222"/>
<path d="M6.52321 17.7778H7.52138L8.28406 22.2682H7.5495L7.41594 21.3757V21.3895H6.57945L6.44589 22.2682H5.76404L6.52321 17.7778ZM7.32807 20.7806L7.00121 18.5596H6.98715L6.66731 20.7806H7.32807Z" fill="#222222"/>
<path d="M8.857 22.0434C8.67072 21.8497 8.57934 21.5799 8.57934 21.2305V18.8192C8.57934 18.4698 8.67072 18.1965 8.857 18.0062C9.04327 17.8125 9.31039 17.719 9.66186 17.719C10.0133 17.719 10.284 17.8159 10.4667 18.0062C10.653 18.1999 10.7444 18.4698 10.7444 18.8192V19.2931H10.0485V18.7742C10.0485 18.4974 9.92546 18.3556 9.67943 18.3556C9.4334 18.3556 9.31039 18.494 9.31039 18.7742V21.2823C9.31039 21.5556 9.4334 21.694 9.67943 21.694C9.92546 21.694 10.0485 21.5556 10.0485 21.2823V20.5974H10.7444V21.2339C10.7444 21.5833 10.653 21.8566 10.4667 22.0469C10.2804 22.2406 10.0133 22.334 9.66186 22.334C9.31039 22.3306 9.03976 22.2372 8.857 22.0434Z" fill="#222222"/>
<path d="M11.1872 17.7778H11.9217V19.6701L12.8566 17.7778H13.5912L12.7196 19.4245L13.6088 22.2648H12.8391L12.217 20.2652L11.9217 20.836V22.2648H11.1872V17.7778Z" fill="#222222"/>
</svg>
