<svg width="25" height="26" viewBox="0 0 25 26" fill="none" xmlns="http://www.w3.org/2000/svg">
<path d="M13 20.3143C10.5 20.3143 8.29 19.0343 7 17.1143C7.03 15.1143 11 14.0143 13 14.0143C15 14.0143 18.97 15.1143 19 17.1143C18.3389 18.0987 17.4459 18.9054 16.3996 19.4634C15.3533 20.0215 14.1858 20.3136 13 20.3143ZM13 6.11426C13.7956 6.11426 14.5587 6.43033 15.1213 6.99294C15.6839 7.55555 16 8.31861 16 9.11426C16 9.90991 15.6839 10.673 15.1213 11.2356C14.5587 11.7982 13.7956 12.1143 13 12.1143C12.2044 12.1143 11.4413 11.7982 10.8787 11.2356C10.3161 10.673 10 9.90991 10 9.11426C10 8.31861 10.3161 7.55555 10.8787 6.99294C11.4413 6.43033 12.2044 6.11426 13 6.11426ZM13 3.11426C11.6868 3.11426 10.3864 3.37292 9.17317 3.87546C7.95991 4.37801 6.85752 5.1146 5.92893 6.04319C4.05357 7.91855 3 10.4621 3 13.1143C3 15.7664 4.05357 18.31 5.92893 20.1853C6.85752 21.1139 7.95991 21.8505 9.17317 22.3531C10.3864 22.8556 11.6868 23.1143 13 23.1143C15.6522 23.1143 18.1957 22.0607 20.0711 20.1853C21.9464 18.31 23 15.7664 23 13.1143C23 7.58426 18.5 3.11426 13 3.11426Z" fill="#222222"/>
</svg>
